<mxfile host="app.diagrams.net" modified="2022-07-26T07:28:13.963Z" agent="5.0 (Windows NT 10.0; Win64; x64) AppleWebKit/537.36 (KHTML, like Gecko) Chrome/103.0.0.0 Safari/537.36" etag="Rrzx0-tLPBLdxpFkNjMX" version="20.1.3" type="github">
  <diagram id="EdJQ1rim-IhcCdblrbLJ" name="第1页">
    <mxGraphModel dx="1422" dy="786" grid="0" gridSize="10" guides="1" tooltips="1" connect="1" arrows="1" fold="1" page="1" pageScale="1" pageWidth="2336" pageHeight="1654" math="0" shadow="0">
      <root>
        <mxCell id="0" />
        <mxCell id="1" parent="0" />
        <mxCell id="T-v4ybxe8Cstx7crRTq--1" value="质检单" style="whiteSpace=wrap;html=1;align=center;rounded=0;fillColor=#dae8fc;strokeColor=#6c8ebf;" parent="1" vertex="1">
          <mxGeometry x="1303" y="530" width="140" height="70" as="geometry" />
        </mxCell>
        <mxCell id="T-v4ybxe8Cstx7crRTq--2" value="制令单" style="whiteSpace=wrap;html=1;align=center;rounded=0;fillColor=#dae8fc;strokeColor=#6c8ebf;" parent="1" vertex="1">
          <mxGeometry x="862" y="260" width="140" height="70" as="geometry" />
        </mxCell>
        <mxCell id="T-v4ybxe8Cstx7crRTq--3" value="领料单" style="whiteSpace=wrap;html=1;align=center;rounded=0;fillColor=#dae8fc;strokeColor=#6c8ebf;" parent="1" vertex="1">
          <mxGeometry x="422" y="530" width="140" height="70" as="geometry" />
        </mxCell>
        <mxCell id="T-v4ybxe8Cstx7crRTq--4" value="返工单" style="whiteSpace=wrap;html=1;align=center;rounded=0;fillColor=#dae8fc;strokeColor=#6c8ebf;" parent="1" vertex="1">
          <mxGeometry x="1302" y="802" width="140" height="70" as="geometry" />
        </mxCell>
        <mxCell id="T-v4ybxe8Cstx7crRTq--6" value="工序汇报单" style="whiteSpace=wrap;html=1;align=center;rounded=0;fillColor=#dae8fc;strokeColor=#6c8ebf;" parent="1" vertex="1">
          <mxGeometry x="644" y="530" width="140" height="70" as="geometry" />
        </mxCell>
        <mxCell id="T-v4ybxe8Cstx7crRTq--8" value="扫码质检" style="shape=rhombus;perimeter=rhombusPerimeter;whiteSpace=wrap;html=1;align=center;rounded=0;fillColor=#d5e8d4;strokeColor=#82b366;" parent="1" vertex="1">
          <mxGeometry x="1313" y="402" width="120" height="60" as="geometry" />
        </mxCell>
        <mxCell id="T-v4ybxe8Cstx7crRTq--9" value="通过" style="shape=rhombus;perimeter=rhombusPerimeter;whiteSpace=wrap;html=1;align=center;rounded=0;fillColor=#d5e8d4;strokeColor=#82b366;" parent="1" vertex="1">
          <mxGeometry x="432" y="403" width="120" height="60" as="geometry" />
        </mxCell>
        <mxCell id="T-v4ybxe8Cstx7crRTq--16" value="扫码汇报" style="shape=rhombus;perimeter=rhombusPerimeter;whiteSpace=wrap;html=1;align=center;rounded=0;fillColor=#d5e8d4;strokeColor=#82b366;" parent="1" vertex="1">
          <mxGeometry x="654" y="402" width="120" height="60" as="geometry" />
        </mxCell>
        <mxCell id="T-v4ybxe8Cstx7crRTq--20" value="工序汇报单子项" style="shape=ext;margin=3;double=1;whiteSpace=wrap;html=1;align=center;rounded=0;fillColor=#dae8fc;strokeColor=#6c8ebf;" parent="1" vertex="1">
          <mxGeometry x="645" y="801" width="140" height="70" as="geometry" />
        </mxCell>
        <mxCell id="T-v4ybxe8Cstx7crRTq--21" value="属于" style="shape=rhombus;perimeter=rhombusPerimeter;whiteSpace=wrap;html=1;align=center;rounded=0;fillColor=#d5e8d4;strokeColor=#82b366;" parent="1" vertex="1">
          <mxGeometry x="654" y="662" width="120" height="60" as="geometry" />
        </mxCell>
        <mxCell id="T-v4ybxe8Cstx7crRTq--26" value="选择" style="shape=rhombus;perimeter=rhombusPerimeter;whiteSpace=wrap;html=1;align=center;rounded=0;fillColor=#d5e8d4;strokeColor=#82b366;" parent="1" vertex="1">
          <mxGeometry x="1312" y="664" width="120" height="60" as="geometry" />
        </mxCell>
        <mxCell id="T-v4ybxe8Cstx7crRTq--41" value="领料单子项" style="shape=ext;margin=3;double=1;whiteSpace=wrap;html=1;align=center;rounded=0;fillColor=#dae8fc;strokeColor=#6c8ebf;" parent="1" vertex="1">
          <mxGeometry x="422" y="801" width="140" height="70" as="geometry" />
        </mxCell>
        <mxCell id="T-v4ybxe8Cstx7crRTq--42" value="属于" style="shape=rhombus;perimeter=rhombusPerimeter;whiteSpace=wrap;html=1;align=center;rounded=0;fillColor=#d5e8d4;strokeColor=#82b366;" parent="1" vertex="1">
          <mxGeometry x="432" y="663" width="120" height="60" as="geometry" />
        </mxCell>
        <mxCell id="T-v4ybxe8Cstx7crRTq--48" value="" style="endArrow=none;html=1;rounded=0;sketch=0;curved=0;exitX=0;exitY=0.5;exitDx=0;exitDy=0;entryX=0.5;entryY=0;entryDx=0;entryDy=0;" parent="1" source="T-v4ybxe8Cstx7crRTq--2" target="T-v4ybxe8Cstx7crRTq--9" edge="1">
          <mxGeometry relative="1" as="geometry">
            <mxPoint x="821" y="642" as="sourcePoint" />
            <mxPoint x="981" y="642" as="targetPoint" />
          </mxGeometry>
        </mxCell>
        <mxCell id="T-v4ybxe8Cstx7crRTq--49" value="1" style="resizable=0;html=1;align=right;verticalAlign=bottom;rounded=0;sketch=0;" parent="T-v4ybxe8Cstx7crRTq--48" connectable="0" vertex="1">
          <mxGeometry x="1" relative="1" as="geometry">
            <mxPoint x="143" y="-43" as="offset" />
          </mxGeometry>
        </mxCell>
        <mxCell id="T-v4ybxe8Cstx7crRTq--50" value="" style="endArrow=none;html=1;rounded=0;sketch=0;curved=0;exitX=0;exitY=1;exitDx=0;exitDy=0;entryX=0.5;entryY=0;entryDx=0;entryDy=0;" parent="1" source="T-v4ybxe8Cstx7crRTq--2" target="T-v4ybxe8Cstx7crRTq--16" edge="1">
          <mxGeometry relative="1" as="geometry">
            <mxPoint x="821" y="642" as="sourcePoint" />
            <mxPoint x="981" y="642" as="targetPoint" />
          </mxGeometry>
        </mxCell>
        <mxCell id="T-v4ybxe8Cstx7crRTq--51" value="1" style="resizable=0;html=1;align=right;verticalAlign=bottom;rounded=0;sketch=0;" parent="T-v4ybxe8Cstx7crRTq--50" connectable="0" vertex="1">
          <mxGeometry x="1" relative="1" as="geometry">
            <mxPoint x="56" y="-30" as="offset" />
          </mxGeometry>
        </mxCell>
        <mxCell id="T-v4ybxe8Cstx7crRTq--52" value="" style="endArrow=none;html=1;rounded=0;sketch=0;curved=0;entryX=0.5;entryY=0;entryDx=0;entryDy=0;exitX=1;exitY=0.5;exitDx=0;exitDy=0;" parent="1" source="T-v4ybxe8Cstx7crRTq--2" target="T-v4ybxe8Cstx7crRTq--8" edge="1">
          <mxGeometry relative="1" as="geometry">
            <mxPoint x="821" y="642" as="sourcePoint" />
            <mxPoint x="981" y="642" as="targetPoint" />
          </mxGeometry>
        </mxCell>
        <mxCell id="T-v4ybxe8Cstx7crRTq--53" value="1" style="resizable=0;html=1;align=right;verticalAlign=bottom;rounded=0;sketch=0;" parent="T-v4ybxe8Cstx7crRTq--52" connectable="0" vertex="1">
          <mxGeometry x="1" relative="1" as="geometry">
            <mxPoint x="-156" y="-48" as="offset" />
          </mxGeometry>
        </mxCell>
        <mxCell id="T-v4ybxe8Cstx7crRTq--54" value="" style="endArrow=none;html=1;rounded=0;sketch=0;curved=0;exitX=0.5;exitY=1;exitDx=0;exitDy=0;entryX=0.5;entryY=0;entryDx=0;entryDy=0;" parent="1" source="T-v4ybxe8Cstx7crRTq--9" target="T-v4ybxe8Cstx7crRTq--3" edge="1">
          <mxGeometry relative="1" as="geometry">
            <mxPoint x="815" y="634" as="sourcePoint" />
            <mxPoint x="975" y="634" as="targetPoint" />
          </mxGeometry>
        </mxCell>
        <mxCell id="T-v4ybxe8Cstx7crRTq--55" value="N" style="resizable=0;html=1;align=right;verticalAlign=bottom;rounded=0;sketch=0;" parent="T-v4ybxe8Cstx7crRTq--54" connectable="0" vertex="1">
          <mxGeometry x="1" relative="1" as="geometry">
            <mxPoint x="-5" y="-29" as="offset" />
          </mxGeometry>
        </mxCell>
        <mxCell id="T-v4ybxe8Cstx7crRTq--56" value="" style="endArrow=none;html=1;rounded=0;sketch=0;curved=0;exitX=0.5;exitY=1;exitDx=0;exitDy=0;" parent="1" source="T-v4ybxe8Cstx7crRTq--16" target="T-v4ybxe8Cstx7crRTq--6" edge="1">
          <mxGeometry relative="1" as="geometry">
            <mxPoint x="625" y="640" as="sourcePoint" />
            <mxPoint x="785" y="640" as="targetPoint" />
          </mxGeometry>
        </mxCell>
        <mxCell id="T-v4ybxe8Cstx7crRTq--57" value="N" style="resizable=0;html=1;align=right;verticalAlign=bottom;rounded=0;sketch=0;" parent="T-v4ybxe8Cstx7crRTq--56" connectable="0" vertex="1">
          <mxGeometry x="1" relative="1" as="geometry">
            <mxPoint x="-6" y="-30" as="offset" />
          </mxGeometry>
        </mxCell>
        <mxCell id="T-v4ybxe8Cstx7crRTq--58" value="" style="endArrow=none;html=1;rounded=0;sketch=0;curved=0;entryX=0.5;entryY=0;entryDx=0;entryDy=0;exitX=0.5;exitY=1;exitDx=0;exitDy=0;" parent="1" source="T-v4ybxe8Cstx7crRTq--8" target="T-v4ybxe8Cstx7crRTq--1" edge="1">
          <mxGeometry relative="1" as="geometry">
            <mxPoint x="829" y="640" as="sourcePoint" />
            <mxPoint x="989" y="640" as="targetPoint" />
          </mxGeometry>
        </mxCell>
        <mxCell id="T-v4ybxe8Cstx7crRTq--59" value="N" style="resizable=0;html=1;align=right;verticalAlign=bottom;rounded=0;sketch=0;" parent="T-v4ybxe8Cstx7crRTq--58" connectable="0" vertex="1">
          <mxGeometry x="1" relative="1" as="geometry">
            <mxPoint x="-5" y="-30" as="offset" />
          </mxGeometry>
        </mxCell>
        <mxCell id="T-v4ybxe8Cstx7crRTq--60" value="" style="endArrow=none;html=1;rounded=0;sketch=0;curved=0;exitX=0.5;exitY=1;exitDx=0;exitDy=0;entryX=0.5;entryY=0;entryDx=0;entryDy=0;" parent="1" source="T-v4ybxe8Cstx7crRTq--3" target="T-v4ybxe8Cstx7crRTq--42" edge="1">
          <mxGeometry relative="1" as="geometry">
            <mxPoint x="815" y="634" as="sourcePoint" />
            <mxPoint x="975" y="634" as="targetPoint" />
          </mxGeometry>
        </mxCell>
        <mxCell id="T-v4ybxe8Cstx7crRTq--61" value="1" style="resizable=0;html=1;align=right;verticalAlign=bottom;rounded=0;sketch=0;" parent="T-v4ybxe8Cstx7crRTq--60" connectable="0" vertex="1">
          <mxGeometry x="1" relative="1" as="geometry">
            <mxPoint x="-6" y="-19" as="offset" />
          </mxGeometry>
        </mxCell>
        <mxCell id="T-v4ybxe8Cstx7crRTq--65" value="" style="endArrow=none;html=1;rounded=0;sketch=0;curved=0;entryX=0.5;entryY=0;entryDx=0;entryDy=0;exitX=0.5;exitY=1;exitDx=0;exitDy=0;" parent="1" source="T-v4ybxe8Cstx7crRTq--42" target="T-v4ybxe8Cstx7crRTq--41" edge="1">
          <mxGeometry relative="1" as="geometry">
            <mxPoint x="489" y="813" as="sourcePoint" />
            <mxPoint x="975" y="634" as="targetPoint" />
          </mxGeometry>
        </mxCell>
        <mxCell id="T-v4ybxe8Cstx7crRTq--66" value="N" style="resizable=0;html=1;align=right;verticalAlign=bottom;rounded=0;sketch=0;" parent="T-v4ybxe8Cstx7crRTq--65" connectable="0" vertex="1">
          <mxGeometry x="1" relative="1" as="geometry">
            <mxPoint x="-6" y="-25" as="offset" />
          </mxGeometry>
        </mxCell>
        <mxCell id="T-v4ybxe8Cstx7crRTq--67" value="" style="endArrow=none;html=1;rounded=0;sketch=0;curved=0;entryX=0.5;entryY=0;entryDx=0;entryDy=0;exitX=0.5;exitY=1;exitDx=0;exitDy=0;" parent="1" source="T-v4ybxe8Cstx7crRTq--6" target="T-v4ybxe8Cstx7crRTq--21" edge="1">
          <mxGeometry relative="1" as="geometry">
            <mxPoint x="626" y="620" as="sourcePoint" />
            <mxPoint x="786" y="620" as="targetPoint" />
          </mxGeometry>
        </mxCell>
        <mxCell id="T-v4ybxe8Cstx7crRTq--68" value="1" style="resizable=0;html=1;align=right;verticalAlign=bottom;rounded=0;sketch=0;" parent="T-v4ybxe8Cstx7crRTq--67" connectable="0" vertex="1">
          <mxGeometry x="1" relative="1" as="geometry">
            <mxPoint x="-7" y="-19" as="offset" />
          </mxGeometry>
        </mxCell>
        <mxCell id="T-v4ybxe8Cstx7crRTq--69" value="" style="endArrow=none;html=1;rounded=0;sketch=0;curved=0;entryX=0.5;entryY=0;entryDx=0;entryDy=0;exitX=0.5;exitY=1;exitDx=0;exitDy=0;" parent="1" source="T-v4ybxe8Cstx7crRTq--21" edge="1">
          <mxGeometry relative="1" as="geometry">
            <mxPoint x="626" y="620" as="sourcePoint" />
            <mxPoint x="714" y="801" as="targetPoint" />
          </mxGeometry>
        </mxCell>
        <mxCell id="T-v4ybxe8Cstx7crRTq--70" value="N" style="resizable=0;html=1;align=right;verticalAlign=bottom;rounded=0;sketch=0;" parent="T-v4ybxe8Cstx7crRTq--69" connectable="0" vertex="1">
          <mxGeometry x="1" relative="1" as="geometry">
            <mxPoint x="-5" y="-25" as="offset" />
          </mxGeometry>
        </mxCell>
        <mxCell id="T-v4ybxe8Cstx7crRTq--71" value="" style="endArrow=none;html=1;rounded=0;sketch=0;curved=0;entryX=0.5;entryY=0;entryDx=0;entryDy=0;exitX=0.5;exitY=1;exitDx=0;exitDy=0;" parent="1" source="T-v4ybxe8Cstx7crRTq--1" target="T-v4ybxe8Cstx7crRTq--26" edge="1">
          <mxGeometry relative="1" as="geometry">
            <mxPoint x="830" y="620" as="sourcePoint" />
            <mxPoint x="990" y="620" as="targetPoint" />
          </mxGeometry>
        </mxCell>
        <mxCell id="T-v4ybxe8Cstx7crRTq--72" value="1" style="resizable=0;html=1;align=right;verticalAlign=bottom;rounded=0;sketch=0;" parent="T-v4ybxe8Cstx7crRTq--71" connectable="0" vertex="1">
          <mxGeometry x="1" relative="1" as="geometry">
            <mxPoint x="-6" y="-21" as="offset" />
          </mxGeometry>
        </mxCell>
        <mxCell id="T-v4ybxe8Cstx7crRTq--73" value="" style="endArrow=none;html=1;rounded=0;sketch=0;curved=0;entryX=0.5;entryY=0;entryDx=0;entryDy=0;" parent="1" source="T-v4ybxe8Cstx7crRTq--26" target="T-v4ybxe8Cstx7crRTq--4" edge="1">
          <mxGeometry relative="1" as="geometry">
            <mxPoint x="830" y="620" as="sourcePoint" />
            <mxPoint x="990" y="620" as="targetPoint" />
          </mxGeometry>
        </mxCell>
        <mxCell id="T-v4ybxe8Cstx7crRTq--74" value="1" style="resizable=0;html=1;align=right;verticalAlign=bottom;rounded=0;sketch=0;" parent="T-v4ybxe8Cstx7crRTq--73" connectable="0" vertex="1">
          <mxGeometry x="1" relative="1" as="geometry">
            <mxPoint x="-6" y="-26" as="offset" />
          </mxGeometry>
        </mxCell>
        <mxCell id="T-v4ybxe8Cstx7crRTq--75" value="通过" style="shape=rhombus;perimeter=rhombusPerimeter;whiteSpace=wrap;html=1;align=center;rounded=0;sketch=0;fillColor=#d5e8d4;strokeColor=#82b366;" parent="1" vertex="1">
          <mxGeometry x="1092" y="403" width="120" height="60" as="geometry" />
        </mxCell>
        <mxCell id="T-v4ybxe8Cstx7crRTq--78" value="补料单" style="whiteSpace=wrap;html=1;align=center;rounded=0;sketch=0;fillColor=#dae8fc;strokeColor=#6c8ebf;" parent="1" vertex="1">
          <mxGeometry x="1082" y="530" width="140" height="70" as="geometry" />
        </mxCell>
        <mxCell id="T-v4ybxe8Cstx7crRTq--79" value="" style="endArrow=none;html=1;rounded=0;sketch=0;curved=0;exitX=1;exitY=1;exitDx=0;exitDy=0;entryX=0.5;entryY=0;entryDx=0;entryDy=0;" parent="1" source="T-v4ybxe8Cstx7crRTq--2" target="T-v4ybxe8Cstx7crRTq--75" edge="1">
          <mxGeometry relative="1" as="geometry">
            <mxPoint x="816" y="557" as="sourcePoint" />
            <mxPoint x="976" y="557" as="targetPoint" />
          </mxGeometry>
        </mxCell>
        <mxCell id="T-v4ybxe8Cstx7crRTq--80" value="1" style="resizable=0;html=1;align=right;verticalAlign=bottom;rounded=0;sketch=0;" parent="T-v4ybxe8Cstx7crRTq--79" connectable="0" vertex="1">
          <mxGeometry x="1" relative="1" as="geometry">
            <mxPoint x="-13" y="-19" as="offset" />
          </mxGeometry>
        </mxCell>
        <mxCell id="T-v4ybxe8Cstx7crRTq--81" value="" style="endArrow=none;html=1;rounded=0;sketch=0;curved=0;exitX=0.5;exitY=1;exitDx=0;exitDy=0;entryX=0.5;entryY=0;entryDx=0;entryDy=0;" parent="1" source="T-v4ybxe8Cstx7crRTq--75" target="T-v4ybxe8Cstx7crRTq--78" edge="1">
          <mxGeometry relative="1" as="geometry">
            <mxPoint x="878" y="551" as="sourcePoint" />
            <mxPoint x="1038" y="551" as="targetPoint" />
          </mxGeometry>
        </mxCell>
        <mxCell id="T-v4ybxe8Cstx7crRTq--82" value="N" style="resizable=0;html=1;align=right;verticalAlign=bottom;rounded=0;sketch=0;" parent="T-v4ybxe8Cstx7crRTq--81" connectable="0" vertex="1">
          <mxGeometry x="1" relative="1" as="geometry">
            <mxPoint x="-5" y="-30" as="offset" />
          </mxGeometry>
        </mxCell>
        <mxCell id="xHeSQs5RbqyMI2PvdDXR-1" value="补料单子项" style="shape=ext;margin=3;double=1;whiteSpace=wrap;html=1;align=center;rounded=0;sketch=0;fillColor=#dae8fc;strokeColor=#6c8ebf;" parent="1" vertex="1">
          <mxGeometry x="1082" y="802" width="140" height="70" as="geometry" />
        </mxCell>
        <mxCell id="xHeSQs5RbqyMI2PvdDXR-2" value="属于" style="shape=rhombus;perimeter=rhombusPerimeter;whiteSpace=wrap;html=1;align=center;rounded=0;fillColor=#d5e8d4;strokeColor=#82b366;" parent="1" vertex="1">
          <mxGeometry x="1092" y="662" width="120" height="60" as="geometry" />
        </mxCell>
        <mxCell id="xHeSQs5RbqyMI2PvdDXR-3" value="" style="endArrow=none;html=1;rounded=0;sketch=0;curved=0;entryX=0.5;entryY=0;entryDx=0;entryDy=0;exitX=0.5;exitY=1;exitDx=0;exitDy=0;" parent="1" target="xHeSQs5RbqyMI2PvdDXR-2" edge="1">
          <mxGeometry relative="1" as="geometry">
            <mxPoint x="1152" y="600" as="sourcePoint" />
            <mxPoint x="1224" y="620" as="targetPoint" />
          </mxGeometry>
        </mxCell>
        <mxCell id="xHeSQs5RbqyMI2PvdDXR-4" value="1" style="resizable=0;html=1;align=right;verticalAlign=bottom;rounded=0;sketch=0;" parent="xHeSQs5RbqyMI2PvdDXR-3" connectable="0" vertex="1">
          <mxGeometry x="1" relative="1" as="geometry">
            <mxPoint x="-7" y="-19" as="offset" />
          </mxGeometry>
        </mxCell>
        <mxCell id="xHeSQs5RbqyMI2PvdDXR-5" value="" style="endArrow=none;html=1;rounded=0;sketch=0;curved=0;entryX=0.5;entryY=0;entryDx=0;entryDy=0;exitX=0.5;exitY=1;exitDx=0;exitDy=0;" parent="1" source="xHeSQs5RbqyMI2PvdDXR-2" edge="1">
          <mxGeometry relative="1" as="geometry">
            <mxPoint x="1064" y="620" as="sourcePoint" />
            <mxPoint x="1152" y="801" as="targetPoint" />
          </mxGeometry>
        </mxCell>
        <mxCell id="xHeSQs5RbqyMI2PvdDXR-6" value="N" style="resizable=0;html=1;align=right;verticalAlign=bottom;rounded=0;sketch=0;" parent="xHeSQs5RbqyMI2PvdDXR-5" connectable="0" vertex="1">
          <mxGeometry x="1" relative="1" as="geometry">
            <mxPoint x="-5" y="-25" as="offset" />
          </mxGeometry>
        </mxCell>
        <mxCell id="aaQJXaKTfx_OIb_2QsVe-1" value="流转记录" style="whiteSpace=wrap;html=1;align=center;rounded=0;fillColor=#dae8fc;strokeColor=#6c8ebf;" vertex="1" parent="1">
          <mxGeometry x="862" y="530" width="140" height="70" as="geometry" />
        </mxCell>
        <mxCell id="aaQJXaKTfx_OIb_2QsVe-2" value="关联" style="shape=rhombus;perimeter=rhombusPerimeter;whiteSpace=wrap;html=1;align=center;rounded=0;fillColor=#d5e8d4;strokeColor=#82b366;" vertex="1" parent="1">
          <mxGeometry x="872" y="402" width="120" height="60" as="geometry" />
        </mxCell>
        <mxCell id="aaQJXaKTfx_OIb_2QsVe-3" value="" style="endArrow=none;html=1;rounded=0;sketch=0;curved=0;exitX=0.5;exitY=1;exitDx=0;exitDy=0;" edge="1" parent="1" source="T-v4ybxe8Cstx7crRTq--2" target="aaQJXaKTfx_OIb_2QsVe-2">
          <mxGeometry relative="1" as="geometry">
            <mxPoint x="872" y="340" as="sourcePoint" />
            <mxPoint x="724" y="412" as="targetPoint" />
          </mxGeometry>
        </mxCell>
        <mxCell id="aaQJXaKTfx_OIb_2QsVe-4" value="1" style="resizable=0;html=1;align=right;verticalAlign=bottom;rounded=0;sketch=0;" connectable="0" vertex="1" parent="aaQJXaKTfx_OIb_2QsVe-3">
          <mxGeometry x="1" relative="1" as="geometry">
            <mxPoint x="11" y="-20" as="offset" />
          </mxGeometry>
        </mxCell>
        <mxCell id="aaQJXaKTfx_OIb_2QsVe-5" value="" style="endArrow=none;html=1;rounded=0;sketch=0;curved=0;entryX=0.5;entryY=0;entryDx=0;entryDy=0;" edge="1" parent="1" target="aaQJXaKTfx_OIb_2QsVe-1">
          <mxGeometry relative="1" as="geometry">
            <mxPoint x="932" y="462" as="sourcePoint" />
            <mxPoint x="942" y="412" as="targetPoint" />
          </mxGeometry>
        </mxCell>
        <mxCell id="aaQJXaKTfx_OIb_2QsVe-6" value="1" style="resizable=0;html=1;align=right;verticalAlign=bottom;rounded=0;sketch=0;" connectable="0" vertex="1" parent="aaQJXaKTfx_OIb_2QsVe-5">
          <mxGeometry x="1" relative="1" as="geometry">
            <mxPoint x="11" y="-20" as="offset" />
          </mxGeometry>
        </mxCell>
      </root>
    </mxGraphModel>
  </diagram>
</mxfile>
